<?xml version="1.0" standalone="no"?>
<!DOCTYPE svg PUBLIC "-//W3C//DTD SVG 20010904//EN"
 "http://www.w3.org/TR/2001/REC-SVG-20010904/DTD/svg10.dtd">
<svg version="1.0" xmlns="http://www.w3.org/2000/svg"
 width="512.000000pt" height="512.000000pt" viewBox="0 0 512.000000 512.000000"
 preserveAspectRatio="xMidYMid meet">
<metadata>
Created by potrace 1.14, written by Peter Selinger 2001-2017
</metadata>
<g transform="translate(0.000000,512.000000) scale(0.100000,-0.100000)"
fill="#000000" stroke="none">
<path d="M2400 5114 c-485 -42 -893 -181 -1263 -431 -620 -418 -1020 -1066
-1119 -1813 -16 -123 -16 -509 0 -625 65 -459 233 -873 501 -1230 92 -122 304
-341 426 -440 368 -299 822 -493 1305 -557 123 -16 509 -16 625 0 459 65 873
233 1230 501 122 92 341 304 440 426 293 361 482 795 552 1270 26 180 24 533
-5 720 -113 725 -513 1352 -1119 1755 -330 219 -669 347 -1073 405 -104 15
-413 27 -500 19z m1842 -1033 c100 -48 168 -149 175 -261 5 -64 -4 -90 -417
-1320 -242 -722 -431 -1271 -446 -1293 -25 -39 -91 -92 -134 -109 -78 -30
-185 -26 -255 9 -42 22 -146 101 -172 132 -12 14 -255 414 -540 888 -285 474
-521 859 -524 855 -4 -4 -23 -54 -44 -112 -440 -1245 -600 -1690 -616 -1716
-67 -110 -211 -165 -334 -129 -147 42 -232 156 -228 305 1 44 55 206 278 835
235 663 403 1139 547 1548 40 114 77 170 135 208 153 97 288 72 461 -86 20
-18 245 -382 555 -898 360 -600 523 -864 529 -854 4 8 145 428 314 933 168
506 315 934 326 951 28 47 94 100 152 123 67 27 174 23 238 -9z"/>
</g>
</svg>
