<svg width="1512" height="161" viewBox="0 0 1512 161" fill="none" xmlns="http://www.w3.org/2000/svg">
<g clip-path="url(#clip0_31_145)">
<path d="M1512 -530H0V161H1512V-530Z" fill="white"/>
<path d="M0 29.7099L36.12 27.4065C72.24 25.1032 144.48 20.4965 216.384 18.769C288.456 17.0415 360.024 18.1932 432.096 23.9515C504 29.7099 576.24 40.0749 648.144 35.8137C720.216 31.6677 791.784 12.7804 863.856 4.71869C935.76 -3.34298 1008 -0.578951 1079.9 8.05855C1151.98 16.6961 1223.54 31.207 1295.62 31.207C1367.52 31.207 1439.76 16.696 1475.88 9.32535L1512 2.06987V162.152H1475.88C1439.76 162.152 1367.52 162.152 1295.62 162.152C1223.54 162.152 1151.98 162.152 1079.9 162.152C1008 162.152 935.76 162.152 863.856 162.152C791.784 162.152 720.216 162.152 648.144 162.152C576.24 162.152 504 162.152 432.096 162.152C360.024 162.152 288.456 162.152 216.384 162.152C144.48 162.152 72.24 162.152 36.12 162.152H0V29.7099Z" fill="#4FACF7"/>
<path d="M0 71.1699L36.12 70.594C72.24 70.0182 144.48 68.8666 216.384 66.2177C288.456 63.4537 360.024 59.3077 432.096 50.2095C504 41.2265 576.24 27.4065 648.144 20.2662C720.216 13.241 791.784 12.7804 863.856 13.8169C935.76 14.7382 1008 17.0415 1079.9 19.3449C1151.98 21.6482 1223.54 23.9515 1295.62 22.5695C1367.52 21.3027 1439.76 16.2354 1475.88 13.8169L1512 11.2832V162.152H1475.88C1439.76 162.152 1367.52 162.152 1295.62 162.152C1223.54 162.152 1151.98 162.152 1079.9 162.152C1008 162.152 935.76 162.152 863.856 162.152C791.784 162.152 720.216 162.152 648.144 162.152C576.24 162.152 504 162.152 432.096 162.152C360.024 162.152 288.456 162.152 216.384 162.152C144.48 162.152 72.24 162.152 36.12 162.152H0V71.1699Z" fill="#2B9DFC"/>
<path d="M0 53.8951L36.12 60.5747C72.24 67.3695 144.48 80.7289 216.384 82.1109C288.456 83.4929 360.024 72.6672 432.096 69.788C504 66.9089 576.24 71.9762 648.144 77.7346C720.216 83.4929 791.784 89.9422 863.856 85.9114C935.76 81.8805 1008 67.3695 1079.9 67.4847C1151.98 67.715 1223.54 82.6867 1295.62 81.8805C1367.52 81.1895 1439.76 64.6056 1475.88 56.4287L1512 48.1367V162.152H1475.88C1439.76 162.152 1367.52 162.152 1295.62 162.152C1223.54 162.152 1151.98 162.152 1079.9 162.152C1008 162.152 935.76 162.152 863.856 162.152C791.784 162.152 720.216 162.152 648.144 162.152C576.24 162.152 504 162.152 432.096 162.152C360.024 162.152 288.456 162.152 216.384 162.152C144.48 162.152 72.24 162.152 36.12 162.152H0V53.8951Z" fill="#008CFF"/>
<path d="M0 74.625L36.12 74.3946C72.24 74.2794 144.48 73.8188 216.384 77.1586C288.456 80.3833 360.024 87.2933 432.096 90.4028C504 93.3972 576.24 92.7061 648.144 89.9421C720.216 87.2933 791.784 82.6866 863.856 81.1895C935.76 79.5771 1008 81.1895 1079.9 86.7175C1151.98 92.2455 1223.54 101.919 1295.62 107.447C1367.52 112.976 1439.76 114.588 1475.88 115.279L1512 116.085V162.152H1475.88C1439.76 162.152 1367.52 162.152 1295.62 162.152C1223.54 162.152 1151.98 162.152 1079.9 162.152C1008 162.152 935.76 162.152 863.856 162.152C791.784 162.152 720.216 162.152 648.144 162.152C576.24 162.152 504 162.152 432.096 162.152C360.024 162.152 288.456 162.152 216.384 162.152C144.48 162.152 72.24 162.152 36.12 162.152H0V74.625Z" fill="#007AFF"/>
<path d="M0 136.815L36.12 135.087C72.24 133.36 144.48 129.905 216.384 129.099C288.456 128.408 360.024 130.25 432.096 131.632C504 133.014 576.24 133.705 648.144 129.559C720.216 125.298 791.784 116.085 863.856 116.43C935.76 116.891 1008 126.795 1079.9 129.329C1151.98 131.863 1223.54 126.795 1295.62 121.843C1367.52 116.891 1439.76 111.824 1475.88 109.405L1512 106.872V162.152H1475.88C1439.76 162.152 1367.52 162.152 1295.62 162.152C1223.54 162.152 1151.98 162.152 1079.9 162.152C1008 162.152 935.76 162.152 863.856 162.152C791.784 162.152 720.216 162.152 648.144 162.152C576.24 162.152 504 162.152 432.096 162.152C360.024 162.152 288.456 162.152 216.384 162.152C144.48 162.152 72.24 162.152 36.12 162.152H0V136.815Z" fill="#0066FF"/>
</g>
<defs>
<clipPath id="clip0_31_145">
<rect width="1512" height="691" fill="white" transform="translate(0 -530)"/>
</clipPath>
</defs>
</svg>
